# xmcd
#
# Track frame offsets:
#	150
#	31650
#	50125
#	71675
#	94235
#	112050
#	133730
#	158295
#	200065
#	221085
#	237865
#	268195
#	300715
#
# Disc length: 4277 seconds
#
# Revision: 1
# Processed by: cddbd v1.5.2PL0 Copyright (c) Steve Scherf et al.
# Submitted via: audiograbber 1.83.01
#
DISCID=c010b30d
DTITLE=Rocky Jackson - Testify!
DYEAR=2010
DGENRE=Blues
TTITLE0=I Just Want to Make Love To You
TTITLE1=Big Legs Don't Mean Fat
TTITLE2=Voodoo Spell
TTITLE3=Stop Breakin' Down
TTITLE4=Like Magic
TTITLE5=I Wanna Testify (About My Baby)
TTITLE6=Early In The Morning
TTITLE7=Shoulda Never Left Texas
TTITLE8=Chicken-Legged Woman
TTITLE9=Don't Say Nothin'
TTITLE10=In The Doghouse Now
TTITLE11=Long Distance Call
TTITLE12=L.A. to Austin
EXTD=
EXTT0=
EXTT1=
EXTT2=
EXTT3=
EXTT4=
EXTT5=
EXTT6=
EXTT7=
EXTT8=
EXTT9=
EXTT10=
EXTT11=
EXTT12=
PLAYORDER=
